Simulation
nRows=31
nColumns=15
endheader
time  TH_x TH_y TH_z SC_y  SC_z  SC_x  AC_y  AC_z  AC_x  GH_y  GH_z  GH_yy  EL_x  PS_y
0.0  0.000000  0.000000  0.000000  -44.271801152634296  3.5031524529498284  12.55538226498868  46.609915944025055  -0.5335695422280784  -6.542757053945439  -157.70979327012824  4.867039803180721  -175.7856188044636  22.498187166605366  120.000000
0.04070422535211268  0.000000  0.000000  0.000000  -42.85958527166425  4.76851908398259  11.382104251371011  45.41674939563383  0.42447822238481425  -5.507812110683376  -156.95391372251194  4.004208314610127  -176.32415867671796  22.686965866324414  120.000000
0.08140845070422537  0.000000  0.000000  0.000000  -41.623040879727384  5.489954041089326  10.257876250229595  44.42137086970729  1.2751025779001937  -4.868774367129637  -156.91883816785807  3.057038774800665  -176.281107282682  22.661281962029374  120.000000
0.12211267605633805  0.000000  0.000000  0.000000  -40.70508706070267  5.88416848382631  9.234291791852108  43.59607205462563  1.9604257787701187  -4.465655710930713  -160.11686177913134  2.061385274234681  -173.17079972184845  22.46926534460376  120.000000
0.16281690140845073  0.000000  0.000000  0.000000  -40.14783246313381  6.0414517021127185  8.327052690119853  42.97990081753039  2.490706868590925  -4.189603107247378  -173.28895205604482  1.0498463488477254  -160.28353165753148  22.18729705764584  120.000000
0.20352112676056341  0.000000  0.000000  0.000000  -39.92580443151145  6.037783929746542  7.505345931577874  42.63247742365693  2.8932418906460766  -3.8965356249099545  97.94067949786042  0.43032933894917813  -72.00568265744877  21.881583848281526  120.000000
0.2442253521126761  0.000000  0.000000  0.000000  -39.97976900628162  5.934533432349302  6.731150907282005  42.59587662165268  3.2063096919851986  -3.4537697087788315  36.25277928953795  1.3520447650108762  -11.004408253448462  21.645072201971683  120.000000
0.28492957746478875  0.000000  0.000000  0.000000  -40.23138941392638  5.779490405970377  5.971110828051839  42.87915049981768  3.477974157994337  -2.782490699224808  19.38809163475096  2.619761766302114  5.003523185215809  21.575720928061106  120.000000
0.32563380281690146  0.000000  0.000000  0.000000  -40.60070858707155  5.618437508648841  5.19433537006411  43.4394976834502  3.768333193267355  -1.8543012988770813  7.830938821689699  4.1430454465766715  15.568384837667818  21.72975284553858  120.000000
0.3663380281690142  0.000000  0.000000  0.000000  -41.02330594084287  5.498311760511164  4.374932305345439  44.18406816331333  4.145375245860654  -0.6937535080275489  -0.9260957222163116  5.958599778734982  23.227614741109996  22.09426122261096  120.000000
0.40704225352112683  0.000000  0.000000  0.000000  -41.468893184744  5.459198632260559  3.5024201075875703  44.98951362236851  4.677265333327891  0.6356989603747183  -7.173793756889433  8.021993912480143  28.301621287818783  22.584100839833276  120.000000
0.4477464788732395  0.000000  0.000000  0.000000  -41.944827343852374  5.524310566189154  2.5837320663894667  45.73632023652003  5.419589023995166  2.048757744021992  -11.140896600296825  10.221423878881147  31.042019644838714  23.06976626364147  120.000000
0.4884507042253522  0.000000  0.000000  0.000000  -42.47749767269462  5.6964059048960385  1.6473607860328943  46.332788084706365  6.3983109227542165  3.46343551901071  -13.18360030027899  12.43535373042917  31.824156759715205  23.427932611691773  120.000000
0.5291549295774649  0.000000  0.000000  0.000000  -43.08193219272554  5.962532858762903  0.7334957350338601  46.72578208806518  7.597579799906388  4.815368190043221  -13.699056359249719  14.589020027844857  31.056256543577252  23.58660277975302  120.000000
0.5698591549295775  0.000000  0.000000  0.000000  -43.75010393099909  6.303856805772835  -0.11187802594480428  46.89841110934767  8.963335519404742  6.069524829614882  -13.10444433423718  16.667842074551764  29.16388544471082  23.538921866336256  120.000000
0.6105633802816902  0.000000  0.000000  0.000000  -44.447911602497605  6.712436280764052  -0.8440674515707024  46.8636323409219  10.404543592005263  7.219750548352986  -11.81315370578075  18.702933248700152  26.5669703315526  23.325174381855295  120.000000
0.6512676056338029  0.000000  0.000000  0.000000  -45.13229209162178  7.195531474832741  -1.4203492370651962  46.658536989563956  11.818155960507472  8.28250415645288  -10.205309471668006  20.730788849070798  23.656230123675524  23.00068937836003  120.000000
0.6919718309859156  0.000000  0.000000  0.000000  -45.78139273805506  7.755461827329984  -1.7930164479788624  46.3461288147016  13.117440835221247  9.27233005640455  -8.566614194034761  22.773167807047418  20.725600419266957  22.61821984940466  120.000000
0.7326760563380283  0.000000  0.000000  0.000000  -46.40703798905964  8.375748537608512  -1.909522622037499  46.00620571883766  14.249038474772066  10.185650661592579  -7.047375380710034  24.83226521423351  17.92465776153309  22.21969609824534  120.000000
0.773380281690141  0.000000  0.000000  0.000000  -47.038407145249224  9.033583549926727  -1.7206203270606768  45.71200283113337  15.184968343449247  11.005227000529079  -5.683094917517844  26.890011420131984  15.276243275546271  21.82892771289252  120.000000
0.8140845070422537  0.000000  0.000000  0.000000  -47.70298691440594  9.712862532782859  -1.1896738343132112  45.51132137750001  15.910393218196003  11.709421868795085  -4.431051706591898  28.912759725922637  12.717614206514035  21.451958610897258  120.000000
0.8547887323943664  0.000000  0.000000  0.000000  -48.42099333794876  10.40242210466797  -0.2985656289917486  45.422233892549905  16.42146416697199  12.28053513867115  -3.215674560930882  30.862678371211263  10.156156021251771  21.08385406917262  120.000000
0.895492957746479  0.000000  0.000000  0.000000  -49.201118005149844  11.093118766992646  0.9483228160162672  45.44342794074963  16.721213960076636  12.708870513218097  -1.9707094739591795  32.71407178204887  7.520514772535858  20.716622583675772  120.000000
0.9361971830985917  0.000000  0.000000  0.000000  -50.038350397387234  11.778449286881907  2.5214135928998163  45.5636668413001  16.81723613471426  13.002504641302972  -0.6806220938631203  34.46156548689109  4.812247683554028  20.34767960939534  120.000000
0.9769014084507044  0.000000  0.000000  0.000000  -50.916866414386995  12.454521031851138  4.36661427328154  45.77362719065158  16.723638997731552  13.187461168036991  0.6116164023339298  36.118572505054196  2.112080965451494  19.983649275064483  120.000000
1.017605633802817  0.000000  0.000000  0.000000  -51.8176362567919  13.119272624631199  6.408647604734623  46.067006932491566  16.467455816899825  13.31137077871591  1.8166412870576452  37.703675711666904  -0.438890205315408  19.63852758065498  120.000000
1.0583098591549298  0.000000  0.000000  0.000000  -52.72406337024725  13.770042631261072  8.558834476958454  46.43695739345588  16.0933177690149  13.431344554106543  2.842166138719755  39.22528671001782  -2.699579379210646  19.32616856409996  120.000000
1.0990140845070424  0.000000  0.000000  0.000000  -53.62268234283228  14.397831283896299  10.744093241754067  46.86816944703667  15.641509154261358  13.58090433866505  3.6421735997037885  40.684297599241575  -4.58445584367015  19.053128592847045  120.000000
1.139718309859155  0.000000  0.000000  0.000000  -54.50319566441075  14.987565349825166  12.916989251584486  47.338108819965235  15.1389815817954  13.754888304694195  4.234502175046197  42.076818229818116  -6.090009690822824  18.812970146972702  120.000000
1.1804225352112678  0.000000  0.000000  0.000000  -55.36000910165589  15.523125450643926  15.034402993836839  47.821741482385974  14.61359581819123  13.942232941472477  4.666710909838329  43.39176698840625  -7.258775853863996  18.587781919601408  120.000000
1.2211267605633804  0.000000  0.000000  0.000000  -56.1882368979948  15.992073120352629  17.051170641106136  48.29894359957277  14.094207066980323  14.133181176432702  4.990055078801071  44.61362159343573  -8.15089815413673  18.357314501054258  120.000000
